REM DIRINDEX 1\2\5,1\2\6,1\2\7,1\2\8,1\3\9,1\3\10,1\3\11,1\4\12,1\4\13,1\4\14,1\4\15,1\4\16
REM DIRNAME folder01,folder02,folder03,folder04,folder05,folder06,folder07,folder08,folder09,folder10,folder11,folder12,folder13,folder14,folder15,folder16
TITLE ""
FILE "1200_sec01_0144_0152.mp3" MP3
  TRACK 01 AUDIO
    TITLE "0:"
    INDEX 01 00:00:00
  TRACK 02 AUDIO
    TITLE "12:cjc034_04203"
    INDEX 01 00:00:17
  TRACK 03 AUDIO
    TITLE "0:"
    INDEX 01 00:01:38
  TRACK 04 AUDIO
    TITLE "13:cjc034_04204"
    INDEX 01 00:01:71
  TRACK 05 AUDIO
    TITLE "0:"
    INDEX 01 00:03:06
  TRACK 06 AUDIO
    TITLE "14:cjc034_04205"
    INDEX 01 00:03:43
  TRACK 07 AUDIO
    TITLE "0:"
    INDEX 01 00:04:62
  TRACK 08 AUDIO
    TITLE "15:cjc034_04206"
    INDEX 01 00:05:22
  TRACK 09 AUDIO
    TITLE "0:"
    INDEX 01 00:08:44
  TRACK 10 AUDIO
    TITLE "12:cjc034_04207"
    INDEX 01 00:10:02
  TRACK 11 AUDIO
    TITLE "0:"
    INDEX 01 00:11:21
  TRACK 12 AUDIO
    TITLE "13:cjc034_04208"
    INDEX 01 00:11:54
  TRACK 13 AUDIO
    TITLE "0:"
    INDEX 01 00:13:57
  TRACK 14 AUDIO
    TITLE "14:cjc034_04209"
    INDEX 01 00:14:15
  TRACK 15 AUDIO
    TITLE "0:"
    INDEX 01 00:15:36
  TRACK 16 AUDIO
    TITLE "15:cjc034_04210"
    INDEX 01 00:15:72
  TRACK 17 AUDIO
    TITLE "0:"
    INDEX 01 00:19:09
  TRACK 18 AUDIO
    TITLE "12:cjc034_04211"
    INDEX 01 00:20:49
  TRACK 19 AUDIO
    TITLE "0:"
    INDEX 01 00:21:57
  TRACK 20 AUDIO
    TITLE "13:cjc034_04212"
    INDEX 01 00:22:17
  TRACK 21 AUDIO
    TITLE "0:"
    INDEX 01 00:23:28
  TRACK 22 AUDIO
    TITLE "14:cjc034_04213"
    INDEX 01 00:23:67
  TRACK 23 AUDIO
    TITLE "0:"
    INDEX 01 00:25:01
  TRACK 24 AUDIO
    TITLE "15:cjc034_04214"
    INDEX 01 00:25:35
  TRACK 25 AUDIO
    TITLE "0:"
    INDEX 01 00:28:74
  TRACK 26 AUDIO
    TITLE "12:cjc034_04215"
    INDEX 01 00:30:32
  TRACK 27 AUDIO
    TITLE "0:"
    INDEX 01 00:31:53
  TRACK 28 AUDIO
    TITLE "13:cjc034_04216"
    INDEX 01 00:32:13
  TRACK 29 AUDIO
    TITLE "0:"
    INDEX 01 00:34:34
  TRACK 30 AUDIO
    TITLE "14:cjc034_04217"
    INDEX 01 00:34:69
  TRACK 31 AUDIO
    TITLE "0:"
    INDEX 01 00:36:15
  TRACK 32 AUDIO
    TITLE "15:cjc034_04218"
    INDEX 01 00:36:50
  TRACK 33 AUDIO
    TITLE "0:"
    INDEX 01 00:39:43
  TRACK 34 AUDIO
    TITLE "12:cjc034_04219"
    INDEX 01 00:41:08
  TRACK 35 AUDIO
    TITLE "0:"
    INDEX 01 00:42:08
  TRACK 36 AUDIO
    TITLE "13:cjc034_04220"
    INDEX 01 00:42:41
  TRACK 37 AUDIO
    TITLE "0:"
    INDEX 01 00:43:33
  TRACK 38 AUDIO
    TITLE "14:cjc034_04221"
    INDEX 01 00:44:01
  TRACK 39 AUDIO
    TITLE "0:"
    INDEX 01 00:45:00
  TRACK 40 AUDIO
    TITLE "15:cjc034_04222"
    INDEX 01 00:45:33
  TRACK 41 AUDIO
    TITLE "0:"
    INDEX 01 00:48:49
  TRACK 42 AUDIO
    TITLE "12:cjc034_04223"
    INDEX 01 00:50:09
  TRACK 43 AUDIO
    TITLE "0:"
    INDEX 01 00:51:22
  TRACK 44 AUDIO
    TITLE "13:cjc034_04224"
    INDEX 01 00:51:54
  TRACK 45 AUDIO
    TITLE "0:"
    INDEX 01 00:53:02
  TRACK 46 AUDIO
    TITLE "14:cjc034_04225"
    INDEX 01 00:53:35
  TRACK 47 AUDIO
    TITLE "0:"
    INDEX 01 00:54:50
  TRACK 48 AUDIO
    TITLE "15:cjc034_04226"
    INDEX 01 00:55:06
  TRACK 49 AUDIO
    TITLE "0:"
    INDEX 01 00:57:68
  TRACK 50 AUDIO
    TITLE "12:cjc034_04227"
    INDEX 01 00:59:28
  TRACK 51 AUDIO
    TITLE "0:"
    INDEX 01 01:00:33
  TRACK 52 AUDIO
    TITLE "13:cjc034_04228"
    INDEX 01 01:00:66
  TRACK 53 AUDIO
    TITLE "0:"
    INDEX 01 01:03:02
  TRACK 54 AUDIO
    TITLE "14:cjc034_04229"
    INDEX 01 01:03:35
  TRACK 55 AUDIO
    TITLE "0:"
    INDEX 01 01:04:41
  TRACK 56 AUDIO
    TITLE "15:cjc034_04230"
    INDEX 01 01:05:03
  TRACK 57 AUDIO
    TITLE "0:"
    INDEX 01 01:07:74
  TRACK 58 AUDIO
    TITLE "12:cjc034_04231"
    INDEX 01 01:09:32
  TRACK 59 AUDIO
    TITLE "0:"
    INDEX 01 01:10:35
  TRACK 60 AUDIO
    TITLE "13:cjc034_04232"
    INDEX 01 01:11:07
  TRACK 61 AUDIO
    TITLE "0:"
    INDEX 01 01:14:21
  TRACK 62 AUDIO
    TITLE "14:cjc034_04233"
    INDEX 01 01:14:55
  TRACK 63 AUDIO
    TITLE "0:"
    INDEX 01 01:15:54
  TRACK 64 AUDIO
    TITLE "15:cjc034_04234"
    INDEX 01 01:16:30
  TRACK 65 AUDIO
    TITLE "0:"
    INDEX 01 01:19:21
  TRACK 66 AUDIO
    TITLE "12:cjc034_04235"
    INDEX 01 01:20:55
  TRACK 67 AUDIO
    TITLE "0:"
    INDEX 01 01:21:57
  TRACK 68 AUDIO
    TITLE "13:cjc034_04236"
    INDEX 01 01:22:21
  TRACK 69 AUDIO
    TITLE "0:"
    INDEX 01 01:24:59
  TRACK 70 AUDIO
    TITLE "14:cjc034_04237"
    INDEX 01 01:25:15
  TRACK 71 AUDIO
    TITLE "0:"
    INDEX 01 01:26:17
  TRACK 72 AUDIO
    TITLE "15:cjc034_04238"
    INDEX 01 01:26:54
  TRACK 73 AUDIO
    TITLE "0:"
    INDEX 01 01:29:66
